<svg xmlns="http://www.w3.org/2000/svg" xmlns:xlink="http://www.w3.org/1999/xlink" version="1.1" id="Layer_1" x="0px" y="0px" width="100px" height="100px" viewBox="5.0 -10.0 100.0 135.0" enable-background="new 0 0 100 100" xml:space="preserve">
<g>
	<path d="M76.042,27.745h-7.79l3.852-11.901c0.51-1.576-0.354-3.268-1.93-3.778c-1.579-0.511-3.268,0.354-3.778,1.93l-4.45,13.749   H46.567C44.974,15.989,32.99,12.228,26.385,11.923c-1.212-0.066-2.343,0.626-2.857,1.728c-0.514,1.102-0.312,2.405,0.511,3.3   c1.287,1.398,2.294,4.714,2.294,7.549c0,1.239,0.143,2.309,0.373,3.245h-3.081c-0.857,0-1.673,0.367-2.243,1.007   c-0.569,0.641-0.837,1.494-0.737,2.345l6.417,54.255C27.241,86.862,28.521,88,30.042,88h40.25c1.535,0,2.822-1.158,2.983-2.684   l5.75-54.255c0.089-0.846-0.184-1.69-0.753-2.323C77.703,28.106,76.892,27.745,76.042,27.745z M40.477,27.745h-7.295   c-0.288-0.36-0.848-1.312-0.848-3.245c0-1.672-0.248-3.621-0.769-5.522C35.151,20.152,39.372,22.611,40.477,27.745z M27.579,38.64   L27,33.745h5.333H43.75h16.253l-1.437,4.441c-0.022,0-0.044-0.006-0.066-0.006h-6c-0.935,0-1.816,0.436-2.384,1.179l-1.612,2.109   c-0.688,0.005-1.34,0.007-1.824,0.004c-0.23-0.294-0.505-0.72-0.653-1.081c-0.343-0.839-1.145-2.805-7.833-3.808   c-0.903-0.136-1.82,0.148-2.489,0.771l-1.75,1.629c-0.096,0.089-0.186,0.185-0.269,0.286l-0.528,0.639l-0.407-0.161l-0.531-0.585   c-0.723-0.795-1.817-1.144-2.865-0.914L27.579,38.64z M67.593,82H32.708l-3.085-26.088h40.735L67.593,82z M70.993,49.912H28.913   l-0.625-5.284l0.671-0.148c0.273,0.253,0.591,0.454,0.938,0.591l3.083,1.219c1.21,0.477,2.589,0.123,3.416-0.88l1.792-2.169   l0.501-0.466c0.853,0.187,1.655,0.411,2.119,0.597c0.669,1.299,2.312,3.917,4.747,4.073c0.326,0.021,0.984,0.028,1.708,0.028   c1.065,0,2.273-0.015,2.779-0.022c0.92-0.013,1.783-0.447,2.342-1.178l1.6-2.093h3.346l1.389,1.278   c0.554,0.51,1.279,0.792,2.032,0.792h5.672l2.463,0.986c0.809,0.324,1.671,0.262,2.401-0.085L70.993,49.912z M72.148,39.012H71   c-1.103,0-2.107,0.604-2.629,1.556l-0.255-0.103C67.76,40.323,67.382,40.25,67,40.25h-2.796l2.106-6.505h6.397L72.148,39.012z"/>
</g>
</svg>